<svg width="77" height="67" viewBox="0 0 77 67" fill="none" xmlns="http://www.w3.org/2000/svg"><path d="M54.338 20.688a5.567 5.567 0 01-7.874-7.874L36.81 3.158 25.678 14.29.388 39.578l9.66 9.66a5.57 5.57 0 017.823.05 5.57 5.57 0 01.051 7.823l9.66 9.66L52.87 41.48 64 30.351l-9.662-9.663z" fill="#1A1446"/><path d="M10.504 5.457l2.386-4.358 2.39 4.358 4.367 2.382-4.368 2.383-2.39 4.357-2.385-4.357L6.136 7.84l4.368-2.382z" fill="#fff"/><path d="M63.43 55.184l1.428-2.609 1.431 2.609 2.612 1.428-2.612 1.424-1.43 2.609-1.428-2.61-2.613-1.423 2.613-1.428z" fill="#1A1446"/><path d="M74.092 25.001a2.143 2.143 0 11-2.956-2.956l-3.23-3.23a2.143 2.143 0 11-2.957-2.957l-3.23-3.23a2.142 2.142 0 11-2.956-2.956l-3.23-3.23a2.143 2.143 0 11-2.956-2.956l-3.01-3.01-11.132 11.13 27.19 27.189 11.13-11.13L74.092 25z" fill="#F9BD57"/><path d="M41.864 8.194L13.157 36.9l9.659 9.66a5.57 5.57 0 017.823.05 5.57 5.57 0 01.05 7.824l9.66 9.659 28.708-28.708L41.864 8.194z" fill="#544D9F"/><path d="M32.82 35.005c2.01-1.742 4.022-3.483 6.03-5.228.294-.253.675-.466.523-.959-.661-2.197 1.266-4.229 2.923-5.035.746-.361 1.519-.631 2.363-.621 1.275.013 2.14.773 2.288 1.991.267 2.228-1.745 5.123-3.932 5.64-.253.06-.553.165-.776.088-1.387-.486-1.991.523-2.707 1.35-1.721 1.984-3.429 3.982-5.187 5.936-.858.952-1.981.881-2.704-.07-.553-.73-.415-1.654.365-2.373.266-.243.553-.463.83-.696-.003-.006-.01-.013-.017-.023zm18.052-2.427c-.442.442-.888.878-1.323 1.326-.22.227-.378.517-.121.783.266.277.577.085.783-.114.685-.662 1.343-1.354 2.014-2.032.21-.21.412-.429.635-.621.142-.125.32-.297.516-.135.264.223.047.408-.108.57-.796.83-1.603 1.65-2.39 2.491-.26.277-.657.635-.263 1.003.405.38.716-.068.97-.341.762-.817 1.498-1.658 2.257-2.478.165-.178.361-.486.645-.25.32.267.067.52-.132.75-1.08 1.239-2.13 2.504-3.243 3.712-.794.858-1.813 1.364-3 1.178-.676-.108-1.013.155-1.405.611-1.778 2.069-3.56 4.131-5.39 6.153-.9.995-2.23.837-2.797-.277-.436-.857-.16-1.586.536-2.197 2.002-1.758 3.983-3.534 6.004-5.265.49-.419.763-.787.658-1.485-.168-1.151.314-2.14 1.155-2.906 1.215-1.107 2.47-2.167 3.716-3.237.209-.178.428-.516.729-.158.3.354-.085.53-.277.709-.84.783-1.708 1.542-2.552 2.325-.24.223-.526.51-.22.837.308.327.612.054.851-.166.875-.796 1.732-1.613 2.602-2.413.176-.162.365-.496.635-.185.206.24-.088.412-.233.563-.408.429-.834.84-1.252 1.26.003-.008 0-.01 0-.01zm-4.789-17.817a2.143 2.143 0 100-4.286 2.143 2.143 0 000 4.287zm6.183 6.184a2.143 2.143 0 100-4.287 2.143 2.143 0 000 4.287zm6.183 6.183a2.143 2.143 0 100-4.287 2.143 2.143 0 000 4.287zm6.186 6.182a2.143 2.143 0 100-4.286 2.143 2.143 0 000 4.286z" fill="#fff"/></svg>