<svg width="69" height="56" viewBox="0 0 69 56" fill="none" xmlns="http://www.w3.org/2000/svg"><path d="M63.306 24.98l1.428-2.608 1.431 2.608 2.612 1.428-2.612 1.424-1.43 2.61-1.428-2.61-2.616-1.424 2.615-1.428z" fill="#121C43"/><path d="M48.53 2.942l1.89-1.89 5.546 42.08-5.782 8.376h-34.81L16.554.933l1.18 2.009 2.124-1.89 1.417 1.89L23.397.697l1.536 2.008L27.056.461l2.004 2.244 1.89-1.653 1.533 2.008 2.126-1.772 2.123 1.89L38.618.933l2.363 2.127 1.414-2.008 2.123 2.595 1.89-2.714 2.123 2.009z" fill="#D69529"/><path d="M57.97 51.508l-1.748-10.351L57.971.934 56.084 3.06 54.312.58l-1.65 2.48-2.241-2.008 1.35 40.105-1.586 10.35h7.786z" fill="#ACD6E6"/><path d="M14.332 46.223h33.473l-3.722 9.014H18.055l-3.723-9.014z" fill="#094A5C"/><path d="M47.738 45.777l-3.655-4.789H18.055l-3.652 4.79h-1.708v1.272h36.842v-1.273h-1.8z" fill="#fff"/><path d="M21.264 35.588H.404a.212.212 0 00-.213.213v1.576a.21.21 0 00.212.212h1.452L3.67 55.342l14.287.013 1.852-17.766h1.452a.212.212 0 00.212-.212V35.8a.207.207 0 00-.209-.213z" fill="#C6512D"/><path d="M20.984 15.733H.684a.491.491 0 00-.493.493v1.015a.49.49 0 00.492.493h1.172L3.67 35.487l14.287.013 1.853-17.766h1.17c.274 0 .493-.22.493-.493v-1.015a.486.486 0 00-.489-.493zm34.523-4.195l2.116-3.865 2.116 3.865 3.871 2.116-3.87 2.113-2.117 3.864-2.116-3.864-3.875-2.113 3.875-2.116z" fill="#fff"/><path d="M19.047 45.328c-6.092-2.065-14.324 4.006-16.143 2.91l.736 7.29 14.306.043 1.1-10.243z" fill="#F7AC1C"/><path d="M5.216 38.123s4.188 1.444 2.653 4.66c-3.75-.256-2.653-4.66-2.653-4.66z" fill="#121C43"/><path d="M12.61 42.912s-3.033-3.23-5.339-.513c1.772 3.314 5.34.513 5.34.513z" fill="#121C43"/><path d="M14.423 52.524a1.445 1.445 0 100-2.89 1.445 1.445 0 000 2.89z" fill="#921C23"/><path d="M40.198 12.371s1.56 9.896-.5 19.21c-7.83.71-13.604-.33-13.604-.33s2.474-8.08.614-18.566c8.866-.273 13.49-.314 13.49-.314z" fill="#ACD6E6"/><path d="M36.317 10.886l-.065 2.424-6.341.121-.193-2.46 6.599-.085z" fill="#F7AC1C"/></svg>