<svg width="92" height="85" viewBox="0 0 92 85" fill="none" xmlns="http://www.w3.org/2000/svg"><path d="M89.623 28.367L65.009 2.835a6.322 6.322 0 00-8.937-.165L9.382 47.682a6.322 6.322 0 00-.165 8.938l24.614 25.53a6.322 6.322 0 008.937.166l46.69-45.013a6.319 6.319 0 00.165-8.937z" fill="#fff"/><path d="M19.558 67.514l-5.734-6.018 56.2-53.487L75.914 14 19.558 67.514z" fill="#F7AC1C"/><path d="M58.47 67.165L25.2 32.446l-5.69 5.453 33.27 34.719 5.69-5.453z" fill="#F7AC1C"/><path d="M41.664 40.554c2.585-2.13 19.41-2.97 19.41-2.97l-3.507 6.018 3.375 6.548s-16.912 5.184-24.077 2c1.752 7.644-5.255 22.305-5.255 22.305l-5.511-4.239-8.09 2.633s3.972-16.082 6.554-18.212" fill="#F7AC1C"/><path d="M9.477 61.398c2.737 3.321 6.97 5.286 13.044.794 6.54-4.837 14.445-10.041 14.445-10.041l-7.195-8.735s-3.892 4.803-10.075 9.332c-9.018 6.602-15.808 1.87-15.808 1.87l5.589 6.78z" fill="#421416"/><path d="M36.433 51.5l-7.5-9.106s-14.407-6.926-24.725 1.573C-.59 47.919 1.33 51.503 1.33 51.503l8.41 10.213s-3.392-4.958.419-9.018C16.976 45.43 36.433 51.5 36.433 51.5z" fill="#F7AC1C"/><path d="M51.25 26.99c2.736 3.321 3.85 7.854-1.719 12.957-6 5.494-12.622 12.255-12.622 12.255l-7.196-8.735s5.461-2.899 11.087-8.1c8.208-7.587 4.864-15.157 4.864-15.157l5.585 6.78z" fill="#421416"/><path d="M36.372 51.55l-7.499-9.105s-4.04-15.468 6.277-23.966c4.8-3.952 7.949-1.384 7.949-1.384l8.41 10.213s-4.215-4.276-8.93-1.317c-8.441 5.3-6.207 25.56-6.207 25.56z" fill="#F7AC1C"/><path d="M74.351 33.025c-.763.425-1.333 1.323-1.35 2.754-3.351-.658-4.728 3.351-2.308 4.894 2.42 1.539 7.037.438 7.037.438s1.066-1.842.85-4.441c-1.1-.05-2.224-.263-3.078-.807-1.056-.675-1.39-1.819-1.15-2.838z" fill="#421416"/><path d="M83.032 30.035c-.908-2.91-5.167-3.024-5.221.934-1.89-.37-3.15.74-3.46 2.056 1.347-.753 3.29-.037 3.871 1.819.2.638.307 1.249.355 1.822 2.021.095 3.959-.367 3.959-.367s1.593-2.748.496-6.264z" fill="#D53D47"/><path d="M74.351 33.025c-.24 1.02.095 2.163 1.151 2.835.85.543 1.978.756 3.078.806a8.416 8.416 0 00-.354-1.822c-.584-1.86-2.532-2.575-3.875-1.82z" fill="#921C23"/><path d="M74.587 65.732l1.428-2.605 1.427 2.605 2.616 1.428-2.616 1.427-1.427 2.606-1.428-2.606-2.615-1.427 2.615-1.428z" fill="#421416"/><path d="M17.209 13.767l2.39-4.357 2.386 4.357 4.367 2.383-4.367 2.386-2.386 4.357-2.39-4.357-4.364-2.386 4.364-2.383z" fill="#fff"/></svg>