<svg width="80" height="73" viewBox="0 0 80 73" fill="none" xmlns="http://www.w3.org/2000/svg"><path d="M14.272 3.494l1.43-2.609 1.428 2.609 2.613 1.424-2.613 1.428-1.427 2.609-1.431-2.61-2.613-1.427 2.613-1.424z" fill="#921C23"/><path d="M14.569 18.59s-13.5 2.13-13.73 1.894c-3.162 20.678 3.993 50.962 3.993 50.962 3.766-.675 22.484-1.549 39.17-7.229" fill="#421416"/><path d="M2.733 18.118S5.48 59.05 18.814 72.058c28.944-6.18 51.58-15.577 51.58-15.577S55.7 25.81 54.755 12.553C38.42 14.21 2.734 18.118 2.734 18.118z" fill="#D53D47"/><path d="M5.5 16.545s7.273 35.1 18.637 46.913c8.522-.945 47.25-12.687 55.293-23.102-11.368-9.444-18.938-18.924-22.728-33.13L5.5 16.547z" fill="#fff"/><path d="M14.282 22.475s7.023 25.522 14.202 32.667c9.467-1.421 33.412-9.474 41.175-15.15-11.425-7.638-16.416-26.275-16.416-26.275l-38.961 8.758zM44.1 15.847s6.831 22.025 16.578 28.46m-26.281-25.99s6.75 21.12 16.227 30.115M24.221 20.514S32.287 45.2 39.375 52.3M16.948 31.037s27.2-6.108 38.637-10.33M20.07 39.249s27.196-5.896 38.512-11.887M23.425 47.345S51.13 42.04 62.912 34.352" stroke="#FDCA78" stroke-width="3" stroke-miterlimit="10"/><path d="M30.59 36.937l3.874 7.584 10.692-2.849-4.117-7.665-10.45 2.93z" fill="#FDCA78"/><path d="M49.122 27.298c-4.334 4.32-4.303 9.15-4.303 9.15s6.075.516 9.45-3.986" fill="#FCAF17"/><path d="M48.714 26.89l5.92 5.936a1.012 1.012 0 001.43.091l15.482-16.49a1.012 1.012 0 00-.109-1.377l-5.933-5.953a1.012 1.012 0 00-1.43-.092L48.591 25.512a1.012 1.012 0 00.122 1.378z" fill="#921C23"/><path d="M58.42 60.133l2.39-4.357 2.386 4.357 4.367 2.386-4.367 2.383-2.386 4.357-2.39-4.357-4.364-2.383 4.364-2.386z" fill="#fff"/></svg>