<svg width="75" height="60" viewBox="0 0 75 60" fill="none" xmlns="http://www.w3.org/2000/svg"><path d="M37.911 43.264h-8.977s5.906 1.35 5.906 8.842v5.366s2.97-.202 3.206 0v-5.366c0-7.492 5.907-8.842 5.907-8.842h-8.978" fill="#fff"/><path d="M53.909 53.895l1.417-2.599 1.418 2.599 2.632 1.417-2.632 1.452-1.418 2.598-1.417-2.598-2.633-1.452 2.633-1.417z" fill="#921C23"/><path d="M36.696 42.825a1.519 1.519 0 01-1.518-1.519V2.494a1.519 1.519 0 113.037 0v38.812a1.52 1.52 0 01-1.519 1.519z" fill="#fff"/><path d="M56.271 39.72H16.446v3.638h39.825V39.72z" fill="#D53D47"/><path d="M.348 18.424C6.05 10.425 20.26 4.755 36.865 4.755v13.534l-36.517.135z" fill="#E27371"/><path d="M.246 18.525C5.984 10.526 20.16 4.856 36.764 4.856c0 0-13.736 3.072-18.09 13.467" fill="#D53D47"/><path d="M.111 18.559s3.41 5.299 9.552 5.299c6.142 0 9.045-5.468 9.045-5.468s3.543 5.468 9.686 5.468c6.142 0 8.944-5.637 8.944-5.637" fill="#921C23"/><path d="M73.18 18.424C67.476 10.425 53.268 4.755 36.663 4.755v13.534l36.517.135z" fill="#D53D47"/><path d="M74.125 18.525C68.388 10.526 54.179 4.856 37.574 4.856c0 0 13.736 3.072 18.123 13.467" fill="#E27371"/><path d="M73.855 18.559s-3.443 5.299-9.585 5.299c-6.142 0-9.045-5.468-9.045-5.468s-3.544 5.468-9.686 5.468c-6.143 0-8.944-5.637-8.944-5.637" fill="#921C23"/><path d="M15.197 37.492l2.397-4.387 2.396 4.388 4.354 2.362-4.354 2.396-2.396 4.354-2.397-4.354-4.353-2.396 4.354-2.362z" fill="#fff"/></svg>